<?xml version="1.0" encoding="UTF-8"?>
<!-- Created with Inkscape (http://www.inkscape.org/) -->
<svg id="svg2" width="48" height="48" version="1.0" xmlns="http://www.w3.org/2000/svg" xmlns:cc="http://creativecommons.org/ns#" xmlns:dc="http://purl.org/dc/elements/1.1/" xmlns:rdf="http://www.w3.org/1999/02/22-rdf-syntax-ns#" xmlns:xlink="http://www.w3.org/1999/xlink">
 <metadata id="metadata48">
  <rdf:RDF>
   <cc:Work rdf:about="">
    <dc:format>image/svg+xml</dc:format>
    <dc:type rdf:resource="http://purl.org/dc/dcmitype/StillImage"/>
    <dc:title/>
   </cc:Work>
  </rdf:RDF>
 </metadata>
 <g id="layer1">
  <path id="path6475-7" d="m1.5 3.506v36.813c2.2284 6.994 11.373 6.1727 17.312 6.1727 9.2292-0.01472 18.458-0.0391 27.688-0.04766-0.01208-13.024 0-25.738 0-38.781-2.2626-6.944-10.44-6.1562-17.312-6.1562h-27.688v1 1z" style="color:#000000;fill-rule:evenodd;fill:#fff;stroke-width:2;stroke:#fff"/>
  <path id="path6475" d="m37.195 3.506c4.0426 0 7.297 3.249 7.297 7.2849v33.656l-33.695 0.05227c-4.0426-4e-6 -7.297-3.249-7.297-7.2849v-33.705l33.695-0.00341z" style="color:#000000;fill-rule:evenodd;fill:#fff;stroke-width:2;stroke:#000"/>
  <path id="path6190" d="m28.924 9.512c-3.8944 0.057221-7.7659 1.6473-10.875 5.5313-3.1806 3.9734-0.91463 9.5559 1.8702 11.156 2.2518 1.0435 4.2269-0.68374 4.5194-1.7901-0.80757 0.37064-3.4122 0.39926-3.888-1.1798-0.49946-3.6688 1.9205-6.281 5.3421-6.6546 5.7784-0.63091 10.288 5.0983 10.75 10.5 0.65166 7.6182-5.265 15.227-12.25 17.406l20.094 0.0253v-27.494c-1.2773-1.4491-2.7439-2.7789-4.4375-3.9062-3.2951-2.1934-7.2306-3.651-11.125-3.5938z" style="color:#000000;fill-rule:evenodd;stroke-width:1px;stroke:#000"/>
  <path id="path6167" d="m19.062 38.504c3.8944-0.05722 7.7659-1.6472 10.875-5.5312 3.1806-3.9734 0.91462-9.5559-1.8702-11.156-2.2518-1.0435-4.2269 0.68374-4.5194 1.7901 0.80757-0.37064 3.4221-0.54757 3.8978 1.0314 0.49946 3.6688-1.9304 6.4293-5.352 6.8029-5.7784 0.63091-10.288-5.0983-10.75-10.5-0.65166-7.6182 5.265-15.227 12.25-17.406l-20.094-0.025298v27.494c1.2773 1.4491 2.7439 2.7789 4.4375 3.9062 3.2951 2.1934 7.2306 3.651 11.125 3.5938z" style="color:#000000;fill-rule:evenodd;stroke-width:1px;stroke:#000"/>
 </g>
</svg>
